# xmcd
# 
# Track frame offsets:
#     150
#     20570
#     30157
#     54133
#     76198
#     91295
#     108370
#     126559
#     145071
#     162774
#     179839
#     195316
#     211339
#     230819
#     252806
#     267404
#     283312
#     298133
#     317238
#     334348
# 
# Disc length: 4700
# 
# Revision: 1
# Processed by: cddbd v1.5.2PL0 Copyright (c) Steve Scherf et al.
# Submitted via: fre:ac v1.0.31
# 
DISCID=29125a14
DTITLE=Petra Durst-Benning - Solang die Welt noch schläft
DYEAR=0
DGENRE=Unbekanntes Genre
TTITLE0=Solang die Welt noch schläft CD 4
TTITLE1=Solang die Welt noch schläft CD 4
TTITLE2=Solang die Welt noch schläft CD 4
TTITLE3=Solang die Welt noch schläft CD 4
TTITLE4=Solang die Welt noch schläft CD 4
TTITLE5=Solang die Welt noch schläft CD 4
TTITLE6=Solang die Welt noch schläft CD 4
TTITLE7=Solang die Welt noch schläft CD 4
TTITLE8=Solang die Welt noch schläft CD 4
TTITLE9=Solang die Welt noch schläft CD 4
TTITLE10=Solang die Welt noch schläft CD 4
TTITLE11=Solang die Welt noch schläft CD 4
TTITLE12=Solang die Welt noch schläft CD 4
TTITLE13=Solang die Welt noch schläft CD 4
TTITLE14=Solang die Welt noch schläft CD 4
TTITLE15=Solang die Welt noch schläft CD 4
TTITLE16=Solang die Welt noch schläft CD 4
TTITLE17=Solang die Welt noch schläft CD 4
TTITLE18=Solang die Welt noch schläft CD 4
TTITLE19=Solang die Welt noch schläft CD 4
EXTD=
EXTT0=
EXTT1=
EXTT2=
EXTT3=
EXTT4=
EXTT5=
EXTT6=
EXTT7=
EXTT8=
EXTT9=
EXTT10=
EXTT11=
EXTT12=
EXTT13=
EXTT14=
EXTT15=
EXTT16=
EXTT17=
EXTT18=
EXTT19=
PLAYORDER=
